STARTFONT 2.1
FONT -Monotype-Courier-Regular-I-Normal--36-360-75-75-M-190-iso8859-5
SIZE 36 75 75
FONTBOUNDINGBOX 27 38 0 -8

STARTPROPERTIES 24
FOUNDRY "Monotype"
FAMILY_NAME "Courier"
WEIGHT_NAME "Regular"
SLANT "I"
SETWIDTH_NAME "Normal"
ADD_STYLE_NAME ""
PIXEL_SIZE 36
POINT_SIZE 360
RESOLUTION_X 75
RESOLUTION_Y 75
SPACING "M"
AVERAGE_WIDTH 190
CHARSET_REGISTRY "iso8859"
CHARSET_ENCODING "5"
FACE_NAME "Courier Inclined ISO Latin Cyrillic"
_DEC_DEVICE_FONTNAMES "PS=courier-in-latcyrillic"
COPYRIGHT "Copyright (c) 1993 Monotype Typography Ltd."
CAP_HEIGHT 21
X_HEIGHT 16
WEIGHT 10
QUAD_WIDTH 23
DEFAULT_CHAR 160
FONT_DESCENT 8
FONT_ASCENT 30
ENDPROPERTIES

CHARS 191

STARTCHAR space
ENCODING 32
SWIDTH 600 0
DWIDTH 23 0
BBX 0 0 0 0
BITMAP
ENDCHAR

STARTCHAR exclam
ENCODING 33
SWIDTH 600 0
DWIDTH 23 0
BBX 9 25 9 0
BITMAP
0380
0700
0700
0700
0700
0600
0600
0E00
0E00
0C00
0C00
0C00
0C00
0800
1800
0800
0000
0000
0000
0000
0000
7800
F800
F800
7000
ENDCHAR

STARTCHAR quotedbl
ENCODING 34
SWIDTH 600 0
DWIDTH 23 0
BBX 14 10 9 13
BITMAP
7C7C
7878
7878
7878
7070
F0F0
E0E0
E0E0
E0E0
C0C0
ENDCHAR

STARTCHAR numbersign
ENCODING 35
SWIDTH 600 0
DWIDTH 23 0
BBX 17 28 5 -3
BITMAP
004300
006300
004200
00C600
00C600
008400
008400
018C00
018C00
010800
3FFF80
1FFF80
021800
021000
063000
042000
FFFE00
7FFE00
0C6000
084000
084000
18C000
18C000
108000
308000
318000
318000
210000
ENDCHAR

STARTCHAR dollar
ENCODING 36
SWIDTH 600 0
DWIDTH 23 0
BBX 17 29 5 -4
BITMAP
001000
003000
002000
01FD00
038F80
060100
0C0300
180100
180000
180000
1C0000
0F0000
03F000
003C00
000E00
000600
000600
400600
C00400
C00C00
F03800
BFE000
0F8000
020000
060000
060000
060000
040000
040000
ENDCHAR

STARTCHAR percent
ENCODING 37
SWIDTH 600 0
DWIDTH 23 0
BBX 18 24 6 0
BITMAP
01E000
063000
0C1800
080800
100800
100800
101800
183000
0C6000
078040
000380
003C00
01E000
1E0000
F00000
00F800
018400
020200
060200
040200
040600
040C00
021800
01E000
ENDCHAR

STARTCHAR ampersand
ENCODING 38
SWIDTH 600 0
DWIDTH 23 0
BBX 16 21 5 0
BITMAP
0078
01FE
0384
0300
0600
0600
0600
0600
0300
0300
0F00
1987
3186
60CC
40C8
C058
C070
C060
60F0
3FBC
0E1C
ENDCHAR

STARTCHAR quoteright
ENCODING 39
SWIDTH 600 0
DWIDTH 23 0
BBX 10 11 8 13
BITMAP
07C0
0F80
0F00
1F00
1E00
3C00
3800
7800
7000
E000
C000
ENDCHAR

STARTCHAR parenleft
ENCODING 40
SWIDTH 600 0
DWIDTH 23 0
BBX 9 28 13 -4
BITMAP
0080
0180
0300
0300
0600
0C00
1C00
1800
3800
3000
7000
6000
6000
E000
E000
C000
C000
C000
C000
C000
C000
C000
E000
6000
6000
6000
3000
3000
ENDCHAR

STARTCHAR parenright
ENCODING 41
SWIDTH 600 0
DWIDTH 23 0
BBX 9 28 5 -4
BITMAP
0200
0600
0300
0300
0300
0380
0180
0180
0180
0180
0180
0180
0180
0180
0380
0300
0300
0700
0600
0E00
0C00
1C00
1800
3000
7000
6000
C000
8000
ENDCHAR

STARTCHAR asterisk
ENCODING 42
SWIDTH 600 0
DWIDTH 23 0
BBX 14 14 8 10
BITMAP
0080
0180
0180
0100
0100
E31C
7FF8
0FC0
0700
0D80
1980
30C0
60C0
4040
ENDCHAR

STARTCHAR plus
ENCODING 43
SWIDTH 600 0
DWIDTH 23 0
BBX 18 20 5 1
BITMAP
002000
002000
002000
006000
006000
004000
004000
00C000
00C000
FFFFC0
FFFF80
008000
018000
018000
018000
010000
010000
030000
030000
010000
ENDCHAR

STARTCHAR comma
ENCODING 44
SWIDTH 600 0
DWIDTH 23 0
BBX 10 12 7 -6
BITMAP
07C0
0F80
0F00
1F00
1E00
3C00
3800
7000
7000
E000
C000
4000
ENDCHAR

STARTCHAR minus
ENCODING 45
SWIDTH 600 0
DWIDTH 23 0
BBX 18 2 5 10
BITMAP
FFFFC0
FFFF80
ENDCHAR

STARTCHAR period
ENCODING 46
SWIDTH 600 0
DWIDTH 23 0
BBX 6 5 9 0
BITMAP
38
7C
FC
F8
70
ENDCHAR

STARTCHAR slash
ENCODING 47
SWIDTH 600 0
DWIDTH 23 0
BBX 20 29 4 -3
BITMAP
000010
000030
000060
000040
0000C0
000180
000300
000300
000600
000C00
000800
001800
003000
002000
006000
00C000
008000
018000
030000
020000
060000
0C0000
180000
180000
300000
600000
600000
C00000
800000
ENDCHAR

STARTCHAR zero
ENCODING 48
SWIDTH 600 0
DWIDTH 23 0
BBX 16 25 6 0
BITMAP
0070
01FC
0706
0406
0C03
1803
1003
3003
3003
2003
6002
6002
6006
4006
4006
C004
C004
C00C
C008
C018
4030
6020
70E0
3F80
0E00
ENDCHAR

STARTCHAR one
ENCODING 49
SWIDTH 600 0
DWIDTH 23 0
BBX 15 24 4 0
BITMAP
0008
00F8
07D8
0610
0010
0030
0030
0030
0020
0020
0060
0060
0060
0040
0040
00C0
00C0
00C0
0080
0080
0180
0180
FFFE
7FFC
ENDCHAR

STARTCHAR two
ENCODING 50
SWIDTH 600 0
DWIDTH 23 0
BBX 19 24 3 0
BITMAP
001E00
00FF80
01C1C0
0300C0
060060
040060
040060
000040
0000C0
000180
000300
000600
000C00
001800
007000
00E000
018000
030000
0E0000
180000
300000
E00300
FFFE00
FFFE00
ENDCHAR

STARTCHAR three
ENCODING 51
SWIDTH 600 0
DWIDTH 23 0
BBX 19 25 4 0
BITMAP
001E00
00FF80
0180C0
030060
000060
000060
000060
000040
0000C0
000180
007F00
007C00
000F00
000300
000380
000180
000180
000180
000100
000300
000200
E00E00
701800
3FF000
078000
ENDCHAR

STARTCHAR four
ENCODING 52
SWIDTH 600 0
DWIDTH 23 0
BBX 16 24 5 0
BITMAP
000F
000F
001A
0032
0066
00C6
0086
0184
030C
060C
0C0C
0808
1808
3018
4018
7FFC
FFFE
0010
0030
0030
0030
0020
03F8
03F8
ENDCHAR

STARTCHAR five
ENCODING 53
SWIDTH 600 0
DWIDTH 23 0
BBX 18 24 4 0
BITMAP
03FFC0
03FFC0
030000
020000
020000
060000
060000
040000
047800
0FFE00
0E0700
000380
000180
000180
000180
000180
000100
000300
000300
400600
E00C00
703800
1FF000
078000
ENDCHAR

STARTCHAR six
ENCODING 54
SWIDTH 600 0
DWIDTH 23 0
BBX 17 25 7 0
BITMAP
000F00
007F80
01C000
030000
060000
0C0000
180000
300000
200000
600000
41C000
47F000
DC1800
D00800
E00C00
E00C00
C00C00
800C00
800800
C01800
C01000
403000
60E000
3F8000
0E0000
ENDCHAR

STARTCHAR seven
ENCODING 55
SWIDTH 600 0
DWIDTH 23 0
BBX 15 24 8 0
BITMAP
7FFE
7FFE
C006
C004
000C
0018
0018
0030
0030
0060
0060
00C0
00C0
0180
0180
0300
0200
0600
0400
0C00
0800
1800
1000
1000
ENDCHAR

STARTCHAR eight
ENCODING 56
SWIDTH 600 0
DWIDTH 23 0
BBX 17 25 5 0
BITMAP
007800
01FE00
030300
060180
0C0180
080180
180180
180100
180300
1C0600
0E0C00
03F800
07F800
1C1C00
300C00
600600
600600
C00600
C00600
C00C00
C00C00
601800
707000
3FC000
0F0000
ENDCHAR

STARTCHAR nine
ENCODING 57
SWIDTH 600 0
DWIDTH 23 0
BBX 17 25 5 0
BITMAP
003800
00FE00
038300
060180
040180
0C0180
080080
180080
180180
180180
180380
0C0780
0C1980
07F100
03C100
000300
000200
000600
000C00
001800
003000
006000
01C000
FF0000
780000
ENDCHAR

STARTCHAR colon
ENCODING 58
SWIDTH 600 0
DWIDTH 23 0
BBX 8 17 9 0
BITMAP
0E
1F
3F
3E
1E
00
00
00
00
00
00
00
78
FC
FC
F8
70
ENDCHAR

STARTCHAR semicolon
ENCODING 59
SWIDTH 600 0
DWIDTH 23 0
BBX 12 20 7 -4
BITMAP
00E0
01F0
03F0
03E0
01C0
0000
0000
0000
0000
0000
0F80
0F00
1E00
1E00
3C00
3800
7000
6000
E000
C000
ENDCHAR

STARTCHAR less
ENCODING 60
SWIDTH 600 0
DWIDTH 23 0
BBX 20 19 4 1
BITMAP
000070
0001E0
000780
001E00
007800
01E000
078000
1E0000
F80000
700000
380000
0E0000
078000
01C000
007000
003800
000E00
000780
000100
ENDCHAR

STARTCHAR equal
ENCODING 61
SWIDTH 600 0
DWIDTH 23 0
BBX 20 8 4 7
BITMAP
7FFFF0
7FFFF0
000000
000000
000000
000000
FFFFE0
FFFFC0
ENDCHAR

STARTCHAR greater
ENCODING 62
SWIDTH 600 0
DWIDTH 23 0
BBX 20 19 3 1
BITMAP
0E0000
070000
01C000
00E000
003800
001E00
000700
0003C0
000060
0000F0
0003C0
000F00
003C00
00F000
03C000
0F0000
3C0000
F00000
C00000
ENDCHAR

STARTCHAR question
ENCODING 63
SWIDTH 600 0
DWIDTH 23 0
BBX 14 23 9 0
BITMAP
07C0
3FF0
7038
C01C
C00C
800C
000C
000C
0018
0030
00E0
03C0
0E00
0C00
0800
0800
0000
0000
0000
7800
FC00
FC00
7800
ENDCHAR

STARTCHAR at
ENCODING 64
SWIDTH 600 0
DWIDTH 23 0
BBX 17 27 5 -3
BITMAP
003C00
00FE00
038300
060180
0C0180
0C0180
180180
100100
300F00
303F00
20E300
21C300
618200
630600
630600
430600
418400
C1FE00
C07E00
C00000
C00000
C00000
400000
600000
703000
3FE000
0F0000
ENDCHAR

STARTCHAR A
ENCODING 65
SWIDTH 600 0
DWIDTH 23 0
BBX 23 22 1 0
BITMAP
00FF80
00FF80
000680
000CC0
000CC0
0018C0
001040
003040
002060
006060
00C060
00C060
018020
01FFE0
03FFF0
060030
060030
0C0030
080010
100010
FF01FE
7F01FC
ENDCHAR

STARTCHAR B
ENCODING 66
SWIDTH 600 0
DWIDTH 23 0
BBX 21 22 2 0
BITMAP
0FFF80
07FFE0
018030
010018
010018
030018
030018
030030
020070
0200E0
07FF80
07FFC0
0400E0
040030
040030
0C0030
080030
080060
080060
1801C0
FFFF00
FFFC00
ENDCHAR

STARTCHAR C
ENCODING 67
SWIDTH 600 0
DWIDTH 23 0
BBX 20 23 4 0
BITMAP
003E00
01FF90
0381D0
060070
0C0070
180020
300020
200000
600000
600000
400000
400000
C00000
C00000
C00000
C00000
C00000
600080
600180
300300
180E00
0FF800
03C000
ENDCHAR

STARTCHAR D
ENCODING 68
SWIDTH 600 0
DWIDTH 23 0
BBX 21 22 3 0
BITMAP
0FFF00
07FFC0
0300E0
030030
020030
020018
060018
060018
060018
040018
040010
0C0010
0C0030
080030
080020
180060
1800C0
180180
100300
100600
FFFC00
FFE000
ENDCHAR

STARTCHAR E
ENCODING 69
SWIDTH 600 0
DWIDTH 23 0
BBX 22 22 2 0
BITMAP
0FFFFC
0FFFF8
010008
010018
030018
030018
030010
020600
020400
060400
07FC00
07FC00
040C00
040800
0C0000
0C0020
0C0060
080060
180060
180040
FFFFC0
FFFFC0
ENDCHAR

STARTCHAR F
ENCODING 70
SWIDTH 600 0
DWIDTH 23 0
BBX 23 22 3 0
BITMAP
07FFFE
07FFFE
008006
018004
018004
01800C
010004
030200
030600
030600
03FE00
03FC00
060400
060C00
060000
040000
040000
0C0000
0C0000
0C0000
FFF000
7FE000
ENDCHAR

STARTCHAR G
ENCODING 71
SWIDTH 600 0
DWIDTH 23 0
BBX 20 23 4 0
BITMAP
003E00
00FFD0
0380F0
060030
0C0030
180020
300000
300000
600000
600000
400000
400000
C03FE0
C03FE0
C000C0
C00080
C00080
400180
600180
700180
3C0700
0FFE00
03E000
ENDCHAR

STARTCHAR H
ENCODING 72
SWIDTH 600 0
DWIDTH 23 0
BBX 23 22 2 0
BITMAP
07F0FE
03F0FE
010018
010018
030018
030030
030030
020030
060030
060020
07FFE0
07FFE0
060060
0C0060
0C0040
0C0040
0C00C0
0800C0
1800C0
180080
FF0FF0
7E07E0
ENDCHAR

STARTCHAR I
ENCODING 73
SWIDTH 600 0
DWIDTH 23 0
BBX 19 22 4 0
BITMAP
07FFE0
07FFE0
001000
001000
003000
003000
003000
002000
006000
006000
006000
004000
004000
00C000
00C000
00C000
008000
008000
018000
018000
FFFE00
7FFC00
ENDCHAR

STARTCHAR J
ENCODING 74
SWIDTH 600 0
DWIDTH 23 0
BBX 23 22 4 0
BITMAP
007FFE
003FFC
0000C0
000080
000080
000180
000180
000180
000100
000300
000300
000300
600200
400200
400600
C00600
C00400
C00C00
C01800
703000
3FE000
0F0000
ENDCHAR

STARTCHAR K
ENCODING 75
SWIDTH 600 0
DWIDTH 23 0
BBX 24 22 2 0
BITMAP
0FF87F
07F83E
018018
018070
0100C0
010180
030700
030C00
031800
027000
02FC00
078E00
070600
040300
040300
0C0180
0C0180
0C0180
080080
080080
FF80F0
7F00F0
ENDCHAR

STARTCHAR L
ENCODING 76
SWIDTH 600 0
DWIDTH 23 0
BBX 19 22 3 0
BITMAP
0FFE00
0FFC00
00C000
00C000
008000
008000
018000
018000
018000
010000
010000
030000
030000
020020
020020
060060
060060
060060
040040
040040
FFFFC0
FFFFC0
ENDCHAR

STARTCHAR M
ENCODING 77
SWIDTH 600 0
DWIDTH 23 0
BBX 26 22 1 0
BITMAP
0F8007C0
07C00F80
03C01A00
02C01A00
02403600
06602600
06606600
0460C400
04208C00
0C218C00
0C330C00
0C320800
08360800
081C1800
18181800
18001800
18001000
10001000
30003000
30003000
FF03FC00
FE03F800
ENDCHAR

STARTCHAR N
ENCODING 78
SWIDTH 600 0
DWIDTH 23 0
BBX 24 22 2 0
BITMAP
1F80FF
0F80FE
03C008
02C018
02C018
066018
066010
062010
043030
043030
0C1820
0C1820
0C0860
080C60
080C60
180440
180640
1006C0
1003C0
3003C0
FF0180
FE0180
ENDCHAR

STARTCHAR O
ENCODING 79
SWIDTH 600 0
DWIDTH 23 0
BBX 20 23 4 0
BITMAP
003E00
00FF80
0381C0
0600E0
0C0060
180020
100030
300030
200030
600030
400030
C00030
C00020
C00060
C00060
C000C0
C000C0
600180
600300
300600
381C00
0FF000
03C000
ENDCHAR

STARTCHAR P
ENCODING 80
SWIDTH 600 0
DWIDTH 23 0
BBX 21 22 4 0
BITMAP
0FFF80
07FFE0
018070
018018
010018
010018
030018
030010
030030
020060
0201C0
07FF80
07FC00
040000
040000
0C0000
0C0000
0C0000
080000
080000
FFE000
7FE000
ENDCHAR

STARTCHAR Q
ENCODING 81
SWIDTH 600 0
DWIDTH 23 0
BBX 20 27 4 -4
BITMAP
003E00
00FF80
0381C0
0600E0
0C0060
180020
100030
300030
200030
600030
400030
C00030
C00020
C00060
C00060
C000C0
C000C0
600180
600300
300600
381C00
1FF000
03C000
0E0000
1FC180
7FFF00
601C00
ENDCHAR

STARTCHAR R
ENCODING 82
SWIDTH 600 0
DWIDTH 23 0
BBX 21 22 2 0
BITMAP
0FFF80
07FFE0
018030
018018
010018
010018
030018
030030
020060
0201C0
07FF00
07FC00
060600
040300
040180
0C0180
0C00C0
0C00C0
080040
080060
FF8078
7F0038
ENDCHAR

STARTCHAR S
ENCODING 83
SWIDTH 600 0
DWIDTH 23 0
BBX 20 23 3 0
BITMAP
003E00
00FFB0
0180F0
030070
060020
0C0020
0C0020
0C0000
0C0000
070000
03F000
007F00
000380
0001C0
0000C0
0000C0
6000C0
600080
600180
700300
D80E00
DFFC00
03E000
ENDCHAR

STARTCHAR T
ENCODING 84
SWIDTH 600 0
DWIDTH 23 0
BBX 19 22 6 0
BITMAP
7FFFE0
7FFFC0
404040
40C0C0
C0C0C0
C0C0C0
C08080
808080
018000
018000
018000
010000
010000
030000
030000
030000
020000
020000
060000
060000
FFE000
FFE000
ENDCHAR

STARTCHAR U
ENCODING 85
SWIDTH 600 0
DWIDTH 23 0
BBX 21 22 5 0
BITMAP
7F87F8
7F07F0
1800C0
1000C0
1000C0
300080
300080
200180
200180
600100
600100
600300
400300
400300
C00200
C00600
C00600
C00C00
601800
707000
3FE000
0F0000
ENDCHAR

STARTCHAR V
ENCODING 86
SWIDTH 600 0
DWIDTH 23 0
BBX 22 22 5 0
BITMAP
FF03FC
FE03FC
300060
300060
3000C0
300080
100180
100300
180300
180600
180400
080C00
081800
0C1800
0C3000
0C2000
0C6000
04C000
04C000
078000
070000
070000
ENDCHAR

STARTCHAR W
ENCODING 87
SWIDTH 600 0
DWIDTH 23 0
BBX 22 22 5 0
BITMAP
FF03FC
7F03F8
200020
600020
600060
60E060
60E040
60A0C0
61A0C0
413080
433180
423180
463100
C43300
CC3300
C83200
D83600
D03600
F01400
A01C00
E01C00
C01800
ENDCHAR

STARTCHAR X
ENCODING 88
SWIDTH 600 0
DWIDTH 23 0
BBX 24 22 1 0
BITMAP
07E03F
07E03F
018008
018010
00C020
00C040
006080
003100
003200
001C00
001800
001C00
002C00
004600
008600
010300
020180
040180
0800C0
100040
FE07F0
FE07F0
ENDCHAR

STARTCHAR Y
ENCODING 89
SWIDTH 600 0
DWIDTH 23 0
BBX 20 22 5 0
BITMAP
7E03F0
7E03F0
180080
180180
0C0300
0C0600
060C00
061800
033000
036000
01C000
018000
018000
018000
010000
010000
030000
030000
030000
020000
FFF000
7FF000
ENDCHAR

STARTCHAR Z
ENCODING 90
SWIDTH 600 0
DWIDTH 23 0
BBX 19 22 4 0
BITMAP
07FFE0
07FFC0
0400C0
040180
0C0300
0C0600
0C0400
000C00
001800
003000
006000
00C000
018000
030000
060180
0C0100
180100
300300
600300
C00200
FFFE00
FFFE00
ENDCHAR

STARTCHAR bracketleft
ENCODING 91
SWIDTH 600 0
DWIDTH 23 0
BBX 12 29 10 -5
BITMAP
03E0
07F0
0600
0400
0400
0C00
0C00
0C00
0800
0800
1800
1800
1800
1000
1000
3000
3000
3000
2000
2000
6000
6000
4000
4000
4000
C000
C000
FC00
FC00
ENDCHAR

STARTCHAR backslash
ENCODING 92
SWIDTH 600 0
DWIDTH 23 0
BBX 8 29 10 -3
BITMAP
80
80
C0
C0
C0
40
60
60
60
20
30
30
30
10
18
18
18
08
0C
0C
0C
04
06
06
06
02
03
03
01
ENDCHAR

STARTCHAR bracketright
ENCODING 93
SWIDTH 600 0
DWIDTH 23 0
BBX 12 29 5 -5
BITMAP
03F0
03F0
0030
0030
0020
0020
0060
0060
0040
0040
0040
00C0
00C0
0080
0080
0180
0180
0180
0100
0100
0300
0300
0300
0200
0200
0600
0600
FE00
FC00
ENDCHAR

STARTCHAR asciicircum
ENCODING 94
SWIDTH 600 0
DWIDTH 23 0
BBX 15 10 7 14
BITMAP
0040
00C0
01E0
0360
0630
0C18
1818
300C
600C
C006
ENDCHAR

STARTCHAR underscore
ENCODING 95
SWIDTH 600 0
DWIDTH 23 0
BBX 23 2 0 -5
BITMAP
FFFFFE
FFFFFE
ENDCHAR

STARTCHAR quoteleft
ENCODING 96
SWIDTH 600 0
DWIDTH 23 0
BBX 6 11 14 13
BITMAP
FC
7C
7C
3C
3C
3C
3C
1C
1C
1C
0C
ENDCHAR

STARTCHAR a
ENCODING 97
SWIDTH 600 0
DWIDTH 23 0
BBX 18 17 3 0
BITMAP
007C00
0FFF00
040380
000180
000180
000100
01F900
0FFF00
3C0300
700300
600200
C00200
C00600
C01E00
607600
7FC7C0
1E0780
ENDCHAR

STARTCHAR b
ENCODING 98
SWIDTH 600 0
DWIDTH 23 0
BBX 22 24 1 0
BITMAP
07C000
07C000
008000
008000
018000
018000
010000
010780
033FF0
037038
03C018
03800C
03000C
06000C
06000C
04000C
040008
040018
0E0010
0E0030
0B0060
0B81C0
F9FF00
783800
ENDCHAR

STARTCHAR c
ENCODING 99
SWIDTH 600 0
DWIDTH 23 0
BBX 18 17 4 0
BITMAP
007800
03FF40
0E03C0
1801C0
3000C0
200080
600000
400000
C00000
C00000
C00000
C00000
400180
600300
300E00
1FF800
07C000
ENDCHAR

STARTCHAR d
ENCODING 100
SWIDTH 600 0
DWIDTH 23 0
BBX 20 24 4 0
BITMAP
0001F0
0000F0
000030
000030
000020
000020
000060
00F860
03FE60
0E0740
180140
3001C0
2000C0
6000C0
400080
C00080
C00180
C00180
C00300
600700
600F00
303B00
1FF3E0
0783C0
ENDCHAR

STARTCHAR e
ENCODING 101
SWIDTH 600 0
DWIDTH 23 0
BBX 18 17 4 0
BITMAP
00F800
03FE00
0E0300
180180
3000C0
6000C0
4000C0
7FFFC0
FFFFC0
C00000
C00000
C00000
600000
600100
380F00
1FFC00
03C000
ENDCHAR

STARTCHAR f
ENCODING 102
SWIDTH 600 0
DWIDTH 23 0
BBX 21 24 4 0
BITMAP
0007E0
001FF8
003000
006000
006000
004000
00C000
0FFFC0
0FFFC0
008000
008000
018000
018000
010000
010000
030000
030000
030000
020000
020000
060000
060000
FFFC00
7FFC00
ENDCHAR

STARTCHAR g
ENCODING 103
SWIDTH 600 0
DWIDTH 23 0
BBX 21 25 4 -8
BITMAP
00F000
07FCF0
0E0EF8
180380
300380
200180
600180
400180
C00100
C00300
C00300
C00700
400600
601E00
303600
1FE600
078600
000400
000400
000C00
000800
001800
007000
7FE000
3F0000
ENDCHAR

STARTCHAR h
ENCODING 104
SWIDTH 600 0
DWIDTH 23 0
BBX 19 24 2 0
BITMAP
0F8000
078000
018000
018000
010000
030000
030000
031F00
027FC0
02C0C0
078060
070060
060060
040060
040040
0C00C0
0C00C0
0C00C0
080080
180080
180180
180180
FE0FE0
FE0FE0
ENDCHAR

STARTCHAR i
ENCODING 105
SWIDTH 600 0
DWIDTH 23 0
BBX 16 24 4 0
BITMAP
0018
0018
0038
0038
0000
0000
0000
0000
0FF0
07E0
0020
0060
0060
0040
0040
00C0
00C0
00C0
0080
0080
0180
0180
FFFF
FFFE
ENDCHAR

STARTCHAR j
ENCODING 106
SWIDTH 600 0
DWIDTH 23 0
BBX 17 32 2 -8
BITMAP
000380
000300
000300
000300
000000
000000
000000
000000
07FF80
07FF00
000100
000300
000300
000300
000200
000200
000600
000600
000600
000400
000400
000C00
000C00
000C00
000800
000800
001800
001000
003000
006000
FFC000
FF0000
ENDCHAR

STARTCHAR k
ENCODING 107
SWIDTH 600 0
DWIDTH 23 0
BBX 20 24 2 0
BITMAP
07C000
07C000
008000
008000
018000
018000
018000
0107F0
0107F0
030380
030E00
021C00
023800
02C000
06E000
076000
063000
043800
0C1C00
0C0C00
0C0E00
080300
F80FE0
780FE0
ENDCHAR

STARTCHAR l
ENCODING 108
SWIDTH 600 0
DWIDTH 23 0
BBX 16 24 4 0
BITMAP
03F8
03F8
0018
0018
0010
0030
0030
0030
0020
0020
0060
0060
0060
0040
0040
00C0
00C0
00C0
0080
0080
0180
0180
FFFF
FFFE
ENDCHAR

STARTCHAR m
ENCODING 109
SWIDTH 600 0
DWIDTH 23 0
BBX 22 17 1 0
BITMAP
007070
1EF9F8
1F8D0C
060E0C
040C0C
0C0C0C
0C0C08
0C0818
080818
081818
181810
181810
181030
101030
103030
FC3C3C
FC3838
ENDCHAR

STARTCHAR n
ENCODING 110
SWIDTH 600 0
DWIDTH 23 0
BBX 19 17 2 0
BITMAP
000F00
1F7FC0
0EC0C0
078060
070060
060060
040060
040040
0C00C0
0C00C0
0C00C0
080080
180080
180180
180180
FE07E0
FE07E0
ENDCHAR

STARTCHAR o
ENCODING 111
SWIDTH 600 0
DWIDTH 23 0
BBX 18 17 4 0
BITMAP
007800
03FE00
0E0300
180180
3000C0
2000C0
6000C0
4000C0
C000C0
C00080
C00180
C00100
600300
600600
381C00
1FF000
078000
ENDCHAR

STARTCHAR p
ENCODING 112
SWIDTH 600 0
DWIDTH 23 0
BBX 23 25 0 -8
BITMAP
0003C0
0F9FF0
07B818
01A00C
01C006
018006
030006
030006
030006
020004
03000C
070008
070018
078030
05C0E0
04FF80
0C3E00
0C0000
0C0000
080000
180000
180000
180000
FF8000
FF8000
ENDCHAR

STARTCHAR q
ENCODING 113
SWIDTH 600 0
DWIDTH 23 0
BBX 22 25 4 -8
BITMAP
00F800
03FE7C
0E0778
1803C0
3001C0
2001C0
6000C0
400080
C00180
C00180
C00180
C00380
600700
600F00
383B00
1FF300
078200
000200
000600
000600
000600
000400
000400
01FF80
00FF80
ENDCHAR

STARTCHAR r
ENCODING 114
SWIDTH 600 0
DWIDTH 23 0
BBX 21 17 3 0
BITMAP
0FC0E0
07C3F0
00CE18
00B800
00B000
01C000
018000
018000
010000
030000
030000
030000
020000
020000
060000
FFFE00
7FFC00
ENDCHAR

STARTCHAR s
ENCODING 115
SWIDTH 600 0
DWIDTH 23 0
BBX 17 17 4 0
BITMAP
00F800
03FE80
0E0380
080180
180180
180000
0C0000
07F000
007E00
000700
000300
400300
400300
E00600
F01C00
BFF800
07C000
ENDCHAR

STARTCHAR t
ENCODING 116
SWIDTH 600 0
DWIDTH 23 0
BBX 15 22 6 0
BITMAP
0600
0400
0C00
0C00
0800
FFFC
FFFE
1800
1800
1000
1000
3000
3000
3000
2000
2000
6000
6000
6004
301C
3FF8
0F80
ENDCHAR

STARTCHAR u
ENCODING 117
SWIDTH 600 0
DWIDTH 23 0
BBX 16 17 5 0
BITMAP
F01F
F01F
3003
3003
2002
2002
6006
6006
6006
4004
4004
C00C
C01C
C03C
E0E8
7F8E
1C1E
ENDCHAR

STARTCHAR v
ENCODING 118
SWIDTH 600 0
DWIDTH 23 0
BBX 21 17 4 0
BITMAP
FF07F8
7F07F8
1800C0
180180
180180
080300
0C0200
0C0600
0C0C00
040800
041800
063000
062000
066000
024000
03C000
038000
ENDCHAR

STARTCHAR w
ENCODING 119
SWIDTH 600 0
DWIDTH 23 0
BBX 20 16 5 0
BITMAP
FC03F0
FC03F0
6000C0
600080
60C180
60C180
21E100
216300
236200
266600
262400
2C2C00
282C00
383800
303800
303000
ENDCHAR

STARTCHAR x
ENCODING 120
SWIDTH 600 0
DWIDTH 23 0
BBX 21 17 2 0
BITMAP
0FC1F8
0FC1F8
030060
0301C0
018380
00C600
006C00
003800
007800
00E800
018C00
030600
060300
1C0380
300080
FE0FE0
FE0FE0
ENDCHAR

STARTCHAR y
ENCODING 121
SWIDTH 600 0
DWIDTH 23 0
BBX 24 24 0 -8
BITMAP
07E03F
07E03F
03000C
010008
018018
018030
008060
00C040
00C0C0
00C180
004100
006300
006600
002400
003C00
003800
003000
002000
006000
00C000
008000
018000
FFE000
7FE000
ENDCHAR

STARTCHAR z
ENCODING 122
SWIDTH 600 0
DWIDTH 23 0
BBX 18 17 4 0
BITMAP
0FFFC0
0FFF80
080300
080600
180C00
001800
003000
006000
00C000
018000
030000
060000
0C0300
180200
300200
7FFE00
FFFE00
ENDCHAR

STARTCHAR braceleft
ENCODING 123
SWIDTH 600 0
DWIDTH 23 0
BBX 10 28 10 -4
BITMAP
00C0
03C0
0200
0600
0400
0400
0C00
0C00
0C00
0800
0800
1800
3000
E000
E000
3000
3000
3000
2000
6000
6000
6000
6000
C000
C000
C000
7000
3000
ENDCHAR

STARTCHAR bar
ENCODING 124
SWIDTH 600 0
DWIDTH 23 0
BBX 2 28 10 -4
BITMAP
C0
C0
C0
C0
C0
C0
C0
C0
C0
C0
C0
C0
C0
C0
C0
C0
C0
C0
C0
C0
C0
C0
C0
C0
C0
C0
C0
C0
ENDCHAR

STARTCHAR braceright
ENCODING 125
SWIDTH 600 0
DWIDTH 23 0
BBX 10 28 7 -4
BITMAP
0300
0380
00C0
00C0
00C0
0080
0180
0180
0180
0180
0300
0300
0300
01C0
01C0
0300
0600
0400
0400
0C00
0C00
0C00
0800
0800
1800
1000
F000
C000
ENDCHAR

STARTCHAR asciitilde
ENCODING 126
SWIDTH 600 0
DWIDTH 23 0
BBX 16 6 6 8
BITMAP
0C00
3F01
6303
C186
80FC
0070
ENDCHAR

STARTCHAR space
ENCODING 160
SWIDTH 600 0
DWIDTH 23 0
BBX 0 0 0 0
BITMAP
ENDCHAR

STARTCHAR afii10023
ENCODING 161
SWIDTH 600 0
DWIDTH 23 0
BBX 22 28 1 0
BITMAP
001818
003838
003838
000000
000000
000000
07FFFC
07FFFC
01800C
01800C
018008
010018
030008
030200
030600
020600
03FE00
07FC00
060C00
060C00
040000
040030
0C0030
0C0020
0C0020
080060
FFFFE0
7FFFE0
ENDCHAR

STARTCHAR afii10051
ENCODING 162
SWIDTH 600 0
DWIDTH 23 0
BBX 20 22 3 0
BITMAP
3FFF80
3FFF80
60C180
60C180
40C180
C08100
C18100
018000
018000
010780
013FE0
037060
03C030
030030
020030
020030
060020
060060
0600C0
0401C0
7F8F00
3F8C00
ENDCHAR

STARTCHAR afii10052
ENCODING 163
SWIDTH 600 0
DWIDTH 23 0
BBX 24 30 2 0
BITMAP
000030
000060
0000C0
000380
000600
000000
000000
000000
0FFFFF
07FFFE
004006
004006
00C006
00C004
00C004
00800C
008000
018000
018000
018000
010000
030000
030000
030000
020000
020000
060000
060000
FFF000
FFE000
ENDCHAR

STARTCHAR afii10053
ENCODING 164
SWIDTH 600 0
DWIDTH 23 0
BBX 20 23 4 0
BITMAP
003E00
01FF90
0381F0
060070
0C0070
180020
300020
300000
600000
600000
7FFE00
7FFC00
C00000
C00000
C00000
C00000
C00000
600080
600180
300300
180E00
0FF800
03C000
ENDCHAR

STARTCHAR afii10054
ENCODING 165
SWIDTH 600 0
DWIDTH 23 0
BBX 20 23 3 0
BITMAP
001E00
00FFB0
0380F0
030070
060020
0C0020
0C0020
0C0000
0C0000
070000
03F000
007F00
000380
0001C0
0000C0
0000C0
6000C0
600080
600180
700300
D80E00
DFF800
03E000
ENDCHAR

STARTCHAR afii10055
ENCODING 166
SWIDTH 600 0
DWIDTH 23 0
BBX 19 22 4 0
BITMAP
07FFE0
07FFE0
001000
001000
003000
003000
003000
002000
006000
006000
006000
004000
004000
00C000
00C000
00C000
008000
008000
018000
018000
FFFE00
7FFC00
ENDCHAR

STARTCHAR afii10056
ENCODING 167
SWIDTH 600 0
DWIDTH 23 0
BBX 19 28 4 0
BITMAP
00C0C0
01C1C0
0181C0
000000
000000
000000
0FFFE0
07FFC0
003000
003000
002000
002000
006000
006000
006000
004000
004000
00C000
00C000
008000
008000
018000
018000
018000
010000
010000
FFFC00
FFFC00
ENDCHAR

STARTCHAR afii10057
ENCODING 168
SWIDTH 600 0
DWIDTH 23 0
BBX 23 22 4 0
BITMAP
007FFE
003FFC
0000C0
000080
000080
000180
000180
000180
000100
000300
000300
000300
600200
400200
400600
C00600
C00400
C00C00
C01800
703000
3FE000
0F0000
ENDCHAR

STARTCHAR afii10058
ENCODING 169
SWIDTH 600 0
DWIDTH 23 0
BBX 23 22 1 0
BITMAP
01FFFC
00FFF8
0010C0
0010C0
0030C0
0030C0
003080
002180
006180
006180
0061F8
00431C
004304
00C306
00C206
008206
008606
41860C
43061C
C704F8
FE3FF0
783F80
ENDCHAR

STARTCHAR afii10059
ENCODING 170
SWIDTH 600 0
DWIDTH 23 0
BBX 23 22 0 0
BITMAP
07EFE0
07EFF0
010300
010300
030200
030200
020600
020600
020600
060400
07FFE0
07FFF8
040C0C
0C0C06
0C0C06
0C0806
081806
081804
18180C
181038
FEFFF0
FEFF80
ENDCHAR

STARTCHAR afii10060
ENCODING 171
SWIDTH 600 0
DWIDTH 23 0
BBX 19 22 4 0
BITMAP
7FFF00
7FFF80
608100
408100
C18100
C18300
818300
010000
010000
030E00
033F80
026080
0380C0
0700C0
0600C0
0600C0
060080
040080
0C0180
0C0180
7F8FE0
7F8FE0
ENDCHAR

STARTCHAR afii10061
ENCODING 172
SWIDTH 600 0
DWIDTH 23 0
BBX 22 30 3 0
BITMAP
000060
0001C0
000380
000600
000C00
000000
000000
000000
1FF01C
0FE07C
0100CC
03018C
030308
030600
020600
020C00
063800
07E000
07F000
041800
0C0C00
0C0C00
0C0400
080600
080600
180200
180200
180300
FF03F0
FF01E0
ENDCHAR

STARTCHAR hyphen
ENCODING 173
SWIDTH 600 0
DWIDTH 23 0
BBX 16 2 6 10
BITMAP
FFFF
FFFF
ENDCHAR

STARTCHAR afii10062
ENCODING 174
SWIDTH 600 0
DWIDTH 23 0
BBX 24 29 3 0
BITMAP
00C030
00C060
0060C0
007F80
001E00
000000
000000
3F807F
3F807F
040018
060030
060060
020060
0300C0
030180
010300
018600
018600
008C00
00D800
00F000
006000
006000
00C000
418000
C30000
C60000
FC0000
780000
ENDCHAR

STARTCHAR afii10145
ENCODING 175
SWIDTH 600 0
DWIDTH 23 0
BBX 24 27 2 -5
BITMAP
0FF0FF
07E07E
018010
010030
010030
030030
030020
020020
020060
060060
060040
060040
040040
0400C0
0C00C0
0C0080
0C0080
080080
080180
180180
FFFFF0
7FFFF0
006000
004000
004000
00C000
004000
ENDCHAR

STARTCHAR afii10017
ENCODING 176
SWIDTH 600 0
DWIDTH 23 0
BBX 23 22 1 0
BITMAP
00FF80
00FF80
000680
000CC0
000CC0
0018C0
001040
003040
002060
006060
00C060
00C060
018020
01FFE0
03FFF0
060030
060030
0C0030
080010
100010
FF01FE
7F01FC
ENDCHAR

STARTCHAR afii10018
ENCODING 177
SWIDTH 600 0
DWIDTH 23 0
BBX 21 22 2 0
BITMAP
0FFFF8
0FFFF0
010010
030030
030010
030000
020000
020000
060000
060000
07FE00
07FFC0
0400E0
0C0030
0C0030
0C0030
080030
180020
180060
1801C0
FFFF80
FFFC00
ENDCHAR

STARTCHAR afii10019
ENCODING 178
SWIDTH 600 0
DWIDTH 23 0
BBX 21 22 2 0
BITMAP
0FFF80
07FFE0
018030
010018
010018
030018
030018
030030
020030
0200E0
07FF80
07FFC0
0400E0
040030
040030
0C0030
080030
080060
080060
1801C0
FFFF00
FFFC00
ENDCHAR

STARTCHAR afii10020
ENCODING 179
SWIDTH 600 0
DWIDTH 23 0
BBX 24 22 2 0
BITMAP
0FFFFF
07FFFE
004006
004006
00C006
00C004
00C004
00800C
008000
018000
018000
018000
010000
030000
030000
030000
020000
020000
060000
060000
FFF000
FFE000
ENDCHAR

STARTCHAR afii10021
ENCODING 180
SWIDTH 600 0
DWIDTH 23 0
BBX 25 27 0 -5
BITMAP
00FFFF80
00FFFF80
00180400
00180C00
00100C00
00300C00
00300800
00301800
00201800
00201800
00601000
00601000
00603000
00403000
00C03000
00C02000
01802000
03006000
07006000
0C006000
7FFFF800
7FFFF800
40001800
40001800
C0001000
C0001000
80001000
ENDCHAR

STARTCHAR afii10022
ENCODING 181
SWIDTH 600 0
DWIDTH 23 0
BBX 22 22 2 0
BITMAP
0FFFFC
0FFFF8
010008
010018
030018
030018
030010
020600
020400
060400
07FC00
07FC00
040C00
040800
0C0000
0C0020
0C0060
080060
180060
180040
FFFFC0
FFFFC0
ENDCHAR

STARTCHAR afii10024
ENCODING 182
SWIDTH 600 0
DWIDTH 23 0
BBX 26 22 0 0
BITMAP
0307E1C0
07C7E3C0
06C186C0
04410CC0
04610880
00631800
00223000
00326000
00326000
001F8000
003FC000
00E46000
00C46000
01842000
030C3000
03083000
06083000
04081000
0C081000
18181800
F8FE1E00
70FE1E00
ENDCHAR

STARTCHAR afii10025
ENCODING 183
SWIDTH 600 0
DWIDTH 23 0
BBX 20 23 3 0
BITMAP
041F00
04FFC0
0F80E0
0E0030
0C0030
080030
180030
180060
0000E0
000380
01FE00
01FF00
0001C0
000040
000060
000060
000060
000040
0000C0
C00180
F00700
3FFE00
03F000
ENDCHAR

STARTCHAR afii10026
ENCODING 184
SWIDTH 600 0
DWIDTH 23 0
BBX 25 22 1 0
BITMAP
0FF00F80
07F01F80
01801C00
01803C00
01006C00
0100C800
0301C800
03019800
02031800
02061800
060C1000
06181000
06183000
04303000
04602000
0CC02000
0D806000
0D806000
0B006000
0E004000
FC07F800
7803F800
ENDCHAR

STARTCHAR afii10027
ENCODING 185
SWIDTH 600 0
DWIDTH 23 0
BBX 26 29 1 0
BITMAP
00180400
00180C00
000C1800
000FF000
0003C000
00000000
00000000
0FF00FC0
07F00F80
01801C00
01803C00
01006C00
0100CC00
0300C800
03018800
03031800
02061800
020C1000
060C1000
06183000
06303000
04603000
04C02000
0CC02000
0D806000
0B006000
0E006000
FC03F800
7C03F800
ENDCHAR

STARTCHAR afii10028
ENCODING 186
SWIDTH 600 0
DWIDTH 23 0
BBX 22 22 3 0
BITMAP
1FF01C
0FE07C
0100CC
03018C
030308
030600
020600
020C00
063800
07E000
07F000
041800
0C0C00
0C0C00
0C0400
080600
080600
180200
180200
180300
FF03F0
FF01E0
ENDCHAR

STARTCHAR afii10029
ENCODING 187
SWIDTH 600 0
DWIDTH 23 0
BBX 25 22 1 0
BITMAP
01FFFF80
01FFFF00
00300C00
00300800
00301800
00201800
00601800
00601000
00601000
00403000
00403000
00C03000
00C02000
00C02000
00806000
01806000
01806000
C1804000
C300C000
C700C000
FE07F800
7807F800
ENDCHAR

STARTCHAR afii10030
ENCODING 188
SWIDTH 600 0
DWIDTH 23 0
BBX 26 22 1 0
BITMAP
0F8007C0
07C00F80
03C01A00
02C01A00
02403600
06602600
06606600
0460C400
04208C00
0C218C00
0C330C00
0C320800
08360800
081C1800
18181800
18001800
18001000
10001000
30003000
30003000
FF03FC00
FE03F800
ENDCHAR

STARTCHAR afii10031
ENCODING 189
SWIDTH 600 0
DWIDTH 23 0
BBX 23 22 2 0
BITMAP
07F0FE
07F0FE
018018
010018
010010
030030
030030
030030
020020
060020
07FFE0
07FFE0
060060
040040
0C0040
0C00C0
0C00C0
0800C0
080080
180080
FF0FF0
7E07E0
ENDCHAR

STARTCHAR afii10032
ENCODING 190
SWIDTH 600 0
DWIDTH 23 0
BBX 20 23 4 0
BITMAP
003E00
00FF80
0381C0
0600E0
0C0060
180020
100030
300030
200030
600030
400030
C00030
C00020
C00060
C00060
C000C0
C00080
600180
600300
300600
381C00
0FF000
03C000
ENDCHAR

STARTCHAR afii10033
ENCODING 191
SWIDTH 600 0
DWIDTH 23 0
BBX 24 22 2 0
BITMAP
07FFFF
07FFFE
018018
018018
010010
030010
030030
030030
020030
020020
060020
060060
060060
040060
0C0040
0C0040
0C00C0
0800C0
0800C0
180080
FF0FF0
7E07E0
ENDCHAR

STARTCHAR afii10034
ENCODING 192
SWIDTH 600 0
DWIDTH 23 0
BBX 21 22 4 0
BITMAP
0FFF80
07FFE0
018070
018030
010018
010018
030018
030010
030030
020060
0201C0
07FF80
07FC00
040000
040000
0C0000
0C0000
0C0000
080000
080000
FFE000
7FE000
ENDCHAR

STARTCHAR afii10035
ENCODING 193
SWIDTH 600 0
DWIDTH 23 0
BBX 20 23 4 0
BITMAP
003E00
01FF90
0381D0
060070
0C0070
180020
300020
200000
600000
600000
400000
400000
C00000
C00000
C00000
C00000
C00000
600080
600180
300300
180E00
0FF800
03C000
ENDCHAR

STARTCHAR afii10036
ENCODING 194
SWIDTH 600 0
DWIDTH 23 0
BBX 19 22 6 0
BITMAP
7FFFE0
7FFFC0
404040
40C0C0
C0C0C0
C0C0C0
C08080
808080
018000
018000
018000
010000
010000
030000
030000
030000
020000
020000
060000
060000
FFE000
FFE000
ENDCHAR

STARTCHAR afii10037
ENCODING 195
SWIDTH 600 0
DWIDTH 23 0
BBX 24 22 3 0
BITMAP
3F807F
3F807F
040018
060030
060060
020060
0300C0
030180
010300
018600
018600
008C00
00D800
00F000
006000
006000
00C000
418000
C30000
C60000
FC0000
780000
ENDCHAR

STARTCHAR afii10038
ENCODING 196
SWIDTH 600 0
DWIDTH 23 0
BBX 20 22 4 0
BITMAP
00FF00
007E00
001800
007C00
07FF80
0E31C0
183060
302030
602030
406030
C06030
C06030
C04060
C04060
C0C0C0
60C180
388F00
1FFC00
018000
018000
0FF000
0FE000
ENDCHAR

STARTCHAR afii10039
ENCODING 197
SWIDTH 600 0
DWIDTH 23 0
BBX 24 22 1 0
BITMAP
07E03F
07E03F
018008
018010
00C020
00C040
006080
003100
003200
001C00
001800
001C00
002C00
004600
008600
010300
020180
040180
0800C0
100040
FE07F0
FE07F0
ENDCHAR

STARTCHAR afii10040
ENCODING 198
SWIDTH 600 0
DWIDTH 23 0
BBX 24 27 1 -5
BITMAP
0FF0FF
07E07E
018010
010030
010030
030030
030020
020020
020060
060060
060040
060040
040040
0400C0
0C00C0
0C0080
0C0080
080080
080180
180180
FFFFF8
7FFFF0
000010
000030
000030
000020
000020
ENDCHAR

STARTCHAR afii10041
ENCODING 199
SWIDTH 600 0
DWIDTH 23 0
BBX 20 22 5 0
BITMAP
FF0FF0
FF0FF0
100180
100180
300100
300100
300300
200300
600300
600200
600600
601E00
707600
3FC400
0F0400
000C00
000C00
000C00
000800
000800
03FF00
03FF00
ENDCHAR

STARTCHAR afii10042
ENCODING 200
SWIDTH 600 0
DWIDTH 23 0
BBX 27 22 0 0
BITMAP
07E7EFE0
07E7E7C0
01818300
01810300
01010200
01030200
03030200
03020600
02020600
02020400
06060400
06060400
06040C00
04040C00
040C0800
0C0C0800
0C0C0800
0C081800
08081800
08181000
FFFFFE00
7FFFFE00
ENDCHAR

STARTCHAR afii10043
ENCODING 201
SWIDTH 600 0
DWIDTH 23 0
BBX 27 27 0 -5
BITMAP
07E7EFE0
07E7E7C0
01818300
01810300
01010200
01030200
03030200
03020600
02020600
02020400
06060400
06060400
06040C00
04040C00
040C0800
0C0C0800
0C0C0800
0C081800
08081800
08181000
FFFFFF00
7FFFFE00
00000200
00000600
00000600
00000400
00000400
ENDCHAR

STARTCHAR afii10044
ENCODING 202
SWIDTH 600 0
DWIDTH 23 0
BBX 19 22 3 0
BITMAP
7FFE00
7FFC00
60C000
40C000
40C000
C08000
418000
018000
018000
010000
01FC00
03FF80
0301C0
030060
020060
020060
060060
060040
0400C0
040380
7FFF00
3FF800
ENDCHAR

STARTCHAR afii10045
ENCODING 203
SWIDTH 600 0
DWIDTH 23 0
BBX 27 22 0 0
BITMAP
0FE00FE0
0FF00FE0
01800300
01000200
03000200
03000200
03000600
03000400
06000400
06000400
07F00400
07FE0C00
04070800
0C018800
0C018800
0C018800
08019800
08011000
18031000
180E1000
FFFDFE00
FFE0FC00
ENDCHAR

STARTCHAR afii10046
ENCODING 204
SWIDTH 600 0
DWIDTH 23 0
BBX 20 22 2 0
BITMAP
0FF000
0FF000
010000
030000
030000
030000
030000
020000
060000
060000
07FE00
07FFC0
0400E0
0C0030
0C0030
0C0030
080030
180020
180060
1801C0
FFFF80
FFFC00
ENDCHAR

STARTCHAR afii10047
ENCODING 205
SWIDTH 600 0
DWIDTH 23 0
BBX 20 23 3 0
BITMAP
003C00
0DFF80
0B01C0
0E0060
1C0060
180030
180030
100030
000030
000030
03FFF0
03FFF0
000020
000060
000060
0000C0
0000C0
000180
000300
C00600
701C00
3FF800
078000
ENDCHAR

STARTCHAR afii10048
ENCODING 206
SWIDTH 600 0
DWIDTH 23 0
BBX 25 23 0 0
BITMAP
00007800
07F1FC00
03E30600
01060300
010C0100
03080180
03180180
03100180
03300180
06200180
07E00180
07E00180
06600100
04600100
0C600300
0C600200
0C600600
0C200400
08300C00
18301800
18183000
FF0FE000
7E038000
ENDCHAR

STARTCHAR afii10049
ENCODING 207
SWIDTH 600 0
DWIDTH 23 0
BBX 24 22 1 0
BITMAP
001FFF
007FFF
00C018
018010
010010
030030
030030
030030
030020
01C020
00FFE0
001FE0
003060
006040
00C040
0180C0
0300C0
0600C0
060080
0C0180
F80FF0
780FF0
ENDCHAR

STARTCHAR afii10065
ENCODING 208
SWIDTH 600 0
DWIDTH 23 0
BBX 18 17 3 0
BITMAP
007C00
07FF00
0E0300
000180
000180
000180
000100
07FF00
1C0700
300300
600300
C00200
C00600
C01E00
607600
7FC7C0
1E0780
ENDCHAR

STARTCHAR afii10066
ENCODING 209
SWIDTH 600 0
DWIDTH 23 0
BBX 19 23 4 0
BITMAP
000020
000060
00FFC0
07FF00
0E0000
180000
18FC00
33FF00
2E0180
2800C0
700060
600060
600060
400060
C00060
C00040
C000C0
C000C0
600180
600700
380E00
1FF800
03C000
ENDCHAR

STARTCHAR afii10067
ENCODING 210
SWIDTH 600 0
DWIDTH 23 0
BBX 19 17 2 0
BITMAP
1FFF00
1FFFC0
0200E0
060060
060060
060040
0400C0
07FF00
0FFF00
0C01C0
080060
080060
080060
180060
1800C0
FFFF80
FFFE00
ENDCHAR

STARTCHAR afii10068
ENCODING 211
SWIDTH 600 0
DWIDTH 23 0
BBX 22 17 2 0
BITMAP
1FFFFC
1FFFFC
00800C
01800C
018008
018008
010018
010018
030000
030000
030000
020000
020000
060000
060000
FFF000
FFE000
ENDCHAR

STARTCHAR afii10069
ENCODING 212
SWIDTH 600 0
DWIDTH 23 0
BBX 23 21 1 -4
BITMAP
03FFFE
03FFFC
006030
004030
004020
00C060
00C060
00C060
008060
018040
0180C0
0100C0
0300C0
060080
1C0080
7FFFF0
FFFFF0
C00030
C00020
800020
800020
ENDCHAR

STARTCHAR afii10070
ENCODING 213
SWIDTH 600 0
DWIDTH 23 0
BBX 18 17 4 0
BITMAP
00F800
03FE00
0E0300
180180
3000C0
6000C0
4000C0
7FFFC0
FFFFC0
C00000
C00000
C00000
600000
600100
380F00
1FFC00
03C000
ENDCHAR

STARTCHAR afii10072
ENCODING 214
SWIDTH 600 0
DWIDTH 23 0
BBX 24 17 1 0
BITMAP
0E1F87
0F1F8F
19861B
198433
008C60
00CCC0
004DC0
007F00
00FF80
0198C0
0318C0
061860
0C1860
0C1020
183030
F0FC3C
E0FC1C
ENDCHAR

STARTCHAR afii10073
ENCODING 215
SWIDTH 600 0
DWIDTH 23 0
BBX 19 17 3 0
BITMAP
087E00
0BFFC0
1E00E0
1C0060
180060
1000C0
000180
03FF00
03FF00
0001C0
0000C0
0000C0
0000C0
400180
E00700
7FFE00
07E000
ENDCHAR

STARTCHAR afii10074
ENCODING 216
SWIDTH 600 0
DWIDTH 23 0
BBX 23 17 2 0
BITMAP
1FC03E
1FC05E
0600F0
0601F0
0603B0
040730
040E20
0C1C60
0C3860
0C7060
08E040
09C040
1B80C0
1F00C0
1600C0
FC07F0
F807F0
ENDCHAR

STARTCHAR afii10075
ENCODING 217
SWIDTH 600 0
DWIDTH 23 0
BBX 23 24 2 0
BITMAP
006030
006030
003060
003FC0
000E00
000000
000000
1FC03E
1FC05E
0600F0
0601F0
0603B0
040730
040E20
0C1C60
0C3860
0C7060
08E040
09C040
1B80C0
1B00C0
1600C0
FC07F0
F807F0
ENDCHAR

STARTCHAR afii10076
ENCODING 218
SWIDTH 600 0
DWIDTH 23 0
BBX 21 17 3 0
BITMAP
3FC078
3FC1F0
060390
060610
060C10
041800
043000
0FE000
0FF000
083800
081800
180C00
180C00
180600
100600
FF03E0
FE03E0
ENDCHAR

STARTCHAR afii10077
ENCODING 219
SWIDTH 600 0
DWIDTH 23 0
BBX 23 17 1 0
BITMAP
03FFFE
03FFFE
006030
004030
004020
00C020
00C060
00C060
008060
008040
018040
0180C0
4100C0
C300C0
C60080
FC07F0
F007F0
ENDCHAR

STARTCHAR afii10078
ENCODING 220
SWIDTH 600 0
DWIDTH 23 0
BBX 24 17 1 0
BITMAP
1F001F
1F001F
058034
05802C
0D806C
0C80CC
08C0C8
08C188
18C318
18C318
184618
106410
106C10
307830
303830
FF03FC
FE03F8
ENDCHAR

STARTCHAR afii10079
ENCODING 221
SWIDTH 600 0
DWIDTH 23 0
BBX 22 17 2 0
BITMAP
1FC1F8
0FC1FC
060060
060060
040060
040060
0C0060
0FFFC0
0FFFC0
0C00C0
0C00C0
1C00C0
180080
180080
180180
FF0FF0
7E07E0
ENDCHAR

STARTCHAR afii10080
ENCODING 222
SWIDTH 600 0
DWIDTH 23 0
BBX 18 17 4 0
BITMAP
007800
03FE00
0E0300
180180
3000C0
2000C0
6000C0
4000C0
C000C0
C00080
C00180
C00100
600300
600600
381C00
1FF000
078000
ENDCHAR

STARTCHAR afii10081
ENCODING 223
SWIDTH 600 0
DWIDTH 23 0
BBX 22 17 2 0
BITMAP
1FFFFC
0FFFFC
020030
020030
060020
060060
060060
040060
040060
0C0040
0C00C0
0C00C0
0800C0
080080
180080
FF0FF0
7E07E0
ENDCHAR

STARTCHAR afii10082
ENCODING 224
SWIDTH 600 0
DWIDTH 23 0
BBX 23 25 0 -8
BITMAP
0003C0
0F9FF0
07B818
01A00C
01C006
018006
030006
030006
030006
020004
03000C
070008
070018
078030
05C0E0
04FF80
0C3E00
0C0000
0C0000
080000
180000
180000
180000
FF8000
FF8000
ENDCHAR

STARTCHAR afii10083
ENCODING 225
SWIDTH 600 0
DWIDTH 23 0
BBX 18 17 4 0
BITMAP
007800
03FF40
0E03C0
1801C0
3000C0
200080
600000
400000
C00000
C00000
C00000
C00000
400180
600300
300E00
1FF800
07C000
ENDCHAR

STARTCHAR afii10084
ENCODING 226
SWIDTH 600 0
DWIDTH 23 0
BBX 19 17 5 0
BITMAP
7FFFE0
7FFFC0
40C0C0
C0C0C0
C0C0C0
C08080
808080
818180
018000
018000
010000
010000
030000
030000
030000
7FF000
7FF000
ENDCHAR

STARTCHAR afii10085
ENCODING 227
SWIDTH 600 0
DWIDTH 23 0
BBX 23 22 2 -6
BITMAP
3F80FE
3F807E
040030
060060
060040
0200C0
030180
030300
010300
018600
018C00
009800
009800
00F000
006000
00C000
00C000
418000
430000
C60000
FC0000
700000
ENDCHAR

STARTCHAR afii10086
ENCODING 228
SWIDTH 600 0
DWIDTH 23 0
BBX 19 29 4 -6
BITMAP
00F800
00F800
001800
001800
001000
001000
03B700
0FFF80
1C30C0
182060
306060
606060
606060
404060
C04060
C0C040
C0C0C0
C0C0C0
C08180
C08380
618700
3FFE00
1F7800
010000
010000
030000
030000
3FF000
3FF000
ENDCHAR

STARTCHAR afii10087
ENCODING 229
SWIDTH 600 0
DWIDTH 23 0
BBX 21 17 2 0
BITMAP
0FC1F8
0FC1F8
030060
0301C0
018380
00C600
006C00
003800
007800
00E800
018C00
030600
060300
1C0380
300080
FE0FE0
FE0FE0
ENDCHAR

STARTCHAR afii10088
ENCODING 230
SWIDTH 600 0
DWIDTH 23 0
BBX 22 22 2 -5
BITMAP
3FC3F8
1FC1FC
040060
040040
0C0040
0C00C0
0C00C0
0800C0
180080
180080
180180
180180
100180
300100
300100
FFFFF0
FFFFF0
000020
000060
000060
000060
000020
ENDCHAR

STARTCHAR afii10089
ENCODING 231
SWIDTH 600 0
DWIDTH 23 0
BBX 20 16 4 0
BITMAP
FF0FF0
7F07F0
180180
180100
100100
300300
300300
300700
301E00
1FF200
078600
000600
000600
000400
01FF80
01FF80
ENDCHAR

STARTCHAR afii10090
ENCODING 232
SWIDTH 600 0
DWIDTH 23 0
BBX 25 17 1 0
BITMAP
1F9FBF00
1F9F9F80
06060C00
06040C00
04040C00
040C0800
0C0C0800
0C0C1800
0C081800
08081800
08181000
18181000
18183000
18103000
10103000
FFFFFC00
FFFFFC00
ENDCHAR

STARTCHAR afii10091
ENCODING 233
SWIDTH 600 0
DWIDTH 23 0
BBX 25 22 1 -5
BITMAP
1F9FBF00
1F9F9F80
06060C00
06040C00
04040C00
040C0800
0C0C0800
0C0C1800
0C081800
08081800
08181000
18181000
18183000
18103000
10103000
FFFFFE00
FFFFFE00
00000600
00000400
00000400
00000C00
00000400
ENDCHAR

STARTCHAR afii10092
ENCODING 234
SWIDTH 600 0
DWIDTH 23 0
BBX 19 17 3 0
BITMAP
7FF800
7FF800
40C000
408000
C08000
C18000
418000
01FE00
01FF80
0100C0
030060
030060
030060
020060
0200C0
3FFF80
1FFE00
ENDCHAR

STARTCHAR afii10093
ENCODING 235
SWIDTH 600 0
DWIDTH 23 0
BBX 25 17 1 0
BITMAP
1FE01F80
1FE00F80
02000600
02000400
06000400
06000C00
04000C00
07F80C00
07FE0800
0C030800
0C019800
0C019800
08019800
08019000
18031000
FFFEFC00
FFF87C00
ENDCHAR

STARTCHAR afii10094
ENCODING 236
SWIDTH 600 0
DWIDTH 23 0
BBX 19 17 2 0
BITMAP
3FE000
1FE000
060000
060000
060000
040000
040000
0FFE00
0FFF80
0C00C0
080060
080060
180060
180060
1800C0
FFFF80
FFFE00
ENDCHAR

STARTCHAR afii10095
ENCODING 237
SWIDTH 600 0
DWIDTH 23 0
BBX 19 17 3 0
BITMAP
007C00
13FF00
160180
1800C0
380040
300060
000060
03FFE0
03FFE0
0000C0
0000C0
000180
800380
C00700
700E00
1FF800
03C000
ENDCHAR

STARTCHAR afii10096
ENCODING 238
SWIDTH 600 0
DWIDTH 23 0
BBX 24 17 0 0
BITMAP
0000F0
0FE3FC
07CE0E
030C06
021803
023003
003003
07E003
07E003
046002
046006
046006
08200C
08300C
081838
FF1FE0
7E0380
ENDCHAR

STARTCHAR afii10097
ENCODING 239
SWIDTH 600 0
DWIDTH 23 0
BBX 23 16 1 0
BITMAP
007FFE
01FFFC
030020
060060
060060
060060
030040
03FFC0
003FC0
00E0C0
0180C0
030080
060180
0C0180
F80FF0
F00FF0
ENDCHAR

STARTCHAR afii61352
ENCODING 240
SWIDTH 600 0
DWIDTH 23 0
BBX 24 22 1 0
BITMAP
0F87F0
0787E0
038086
03C08F
02C19B
02C193
06C112
064112
044132
046336
0C633C
0C6218
0C2200
082600
083678
183678
183400
183400
101C00
101C00
FE1C00
FE0800
ENDCHAR

STARTCHAR afii10071
ENCODING 241
SWIDTH 600 0
DWIDTH 23 0
BBX 19 23 3 0
BITMAP
00C0C0
01C1C0
01C180
000000
000000
000000
007C00
03FF00
0E0180
1800C0
300060
600060
400060
7FFFE0
FFFFE0
C00000
C00000
C00000
600000
600180
380780
1FFE00
03E000
ENDCHAR

STARTCHAR afii10099
ENCODING 242
SWIDTH 600 0
DWIDTH 23 0
BBX 19 31 2 -7
BITMAP
0F8000
0F8000
018000
010000
0FFE00
0FFE00
030000
030E00
037FC0
02C0C0
078060
070060
060060
040060
040040
0C00C0
0C00C0
0C00C0
080080
180080
180180
180180
FE0180
FE0100
000300
000300
000300
000600
000C00
1FF800
1FE000
ENDCHAR

STARTCHAR afii10100
ENCODING 243
SWIDTH 600 0
DWIDTH 23 0
BBX 22 25 2 0
BITMAP
0000E0
000180
000300
000E00
001800
000000
000000
000000
1FFFFC
1FFFFC
00800C
01800C
018008
018008
010018
010018
030000
030000
030000
020000
020000
060000
060000
FFF000
FFE000
ENDCHAR

STARTCHAR afii10101
ENCODING 244
SWIDTH 600 0
DWIDTH 23 0
BBX 18 17 4 0
BITMAP
00FC00
03FF40
0E03C0
1801C0
3000C0
200080
400000
7FF800
FFF800
C00000
C00000
C00000
600180
600300
300E00
1FF800
07C000
ENDCHAR

STARTCHAR afii10102
ENCODING 245
SWIDTH 600 0
DWIDTH 23 0
BBX 17 17 4 0
BITMAP
00F800
03FE80
0E0380
080180
180180
180000
0E0000
07F000
007E00
000600
000300
400300
400300
E00600
F01C00
DFF800
07C000
ENDCHAR

STARTCHAR afii10103
ENCODING 246
SWIDTH 600 0
DWIDTH 23 0
BBX 16 24 4 0
BITMAP
0018
0018
0038
0038
0000
0000
0000
0000
0FF0
07E0
0020
0060
0060
0040
0040
00C0
00C0
00C0
0080
0080
0180
0180
FFFF
FFFE
ENDCHAR

STARTCHAR afii10104
ENCODING 247
SWIDTH 600 0
DWIDTH 23 0
BBX 16 23 4 0
BITMAP
0303
0707
0606
0000
0000
0000
0FF0
07F0
0020
0020
0060
0060
0040
0040
00C0
00C0
00C0
0080
0080
0180
0180
FFFF
FFFE
ENDCHAR

STARTCHAR afii10105
ENCODING 248
SWIDTH 600 0
DWIDTH 23 0
BBX 17 32 2 -8
BITMAP
000380
000300
000300
000300
000000
000000
000000
000000
07FF80
07FF00
000100
000300
000300
000300
000200
000200
000600
000600
000600
000400
000400
000C00
000C00
000C00
000800
000800
001800
001000
003000
006000
FFC000
FF0000
ENDCHAR

STARTCHAR afii10106
ENCODING 249
SWIDTH 600 0
DWIDTH 23 0
BBX 22 17 1 0
BITMAP
03FFE0
03FFE0
006100
006100
006300
004300
004200
00C3E0
00C3F8
00860C
00860C
01860C
41840C
C10418
C70C38
FE3FF0
783FC0
ENDCHAR

STARTCHAR afii10107
ENCODING 250
SWIDTH 600 0
DWIDTH 23 0
BBX 22 17 1 0
BITMAP
1F3FC0
1FBF80
060800
060800
040800
0C1800
0C1000
0FFFC0
0FFFF0
0C1018
18300C
18300C
18200C
18200C
182038
FFFFF0
7CFFC0
ENDCHAR

STARTCHAR afii10108
ENCODING 251
SWIDTH 600 0
DWIDTH 23 0
BBX 19 24 2 0
BITMAP
0F8000
0F8000
018000
010000
0FFE00
0FFE00
030000
030E00
037FC0
02C0C0
078060
070060
060060
040060
040040
0C00C0
0C00C0
0C00C0
080080
180080
180180
180180
FE0FE0
FE0FE0
ENDCHAR

STARTCHAR afii10109
ENCODING 252
SWIDTH 600 0
DWIDTH 23 0
BBX 21 25 3 0
BITMAP
000180
000300
000E00
001C00
003000
000000
000000
000000
3FC078
3FC1F0
060390
060610
060C10
041800
043000
0FE000
0FF000
083800
081800
180C00
180C00
180600
100600
FF03E0
FE03E0
ENDCHAR

STARTCHAR section
ENCODING 253
SWIDTH 600 0
DWIDTH 23 0
BBX 20 26 3 -2
BITMAP
003FF0
006030
008020
018020
010020
010000
018000
0FC000
306000
203800
200C00
300600
180300
0C0080
030040
018040
006040
0030C0
001F80
000C00
000400
400400
400C00
400800
403000
FFE000
ENDCHAR

STARTCHAR afii10110
ENCODING 254
SWIDTH 600 0
DWIDTH 23 0
BBX 24 29 2 -6
BITMAP
00C030
00C060
0060C0
007F80
001E00
000000
000000
3F807F
3F807F
040018
060030
060060
020060
0300C0
030180
010300
018600
018600
008C00
00D800
00F000
006000
006000
00C000
418000
430000
C60000
FC0000
780000
ENDCHAR

STARTCHAR afii10193
ENCODING 255
SWIDTH 600 0
DWIDTH 23 0
BBX 22 22 2 -5
BITMAP
3FC3F8
1FC1FC
040060
040040
0C0040
0C00C0
0C00C0
0800C0
180080
180080
180180
180180
100180
300100
300100
FFFFE0
FFFFE0
00C000
00C000
008000
018000
008000
ENDCHAR
ENDFONT
